<svg width="34" height="34" viewBox="0 0 34 34" fill="none" xmlns="http://www.w3.org/2000/svg">
<g clip-path="url(#clip0_926_11353)">
<path d="M33.996 20.6334C33.996 23.8684 34.0097 27.105 33.996 30.3446C34.0014 31.2002 33.7033 32.0301 33.1545 32.6866C32.6056 33.3431 31.8418 33.7837 30.9986 33.9302C30.6977 33.9786 30.3927 33.9979 30.088 33.9879C23.767 33.9879 17.4445 33.9621 11.1174 34.0015C10.6142 34.0065 10.1151 33.9117 9.64886 33.7225C9.18265 33.5332 8.75862 33.2534 8.40135 32.8991C8.04407 32.5449 7.76066 32.1233 7.56752 31.6588C7.37438 31.1942 7.27535 30.696 7.27618 30.1929C7.31665 23.8472 7.31665 17.5015 7.27618 11.1558C7.26578 10.6457 7.358 10.1387 7.54735 9.66494C7.7367 9.19116 8.01933 8.76025 8.37846 8.39779C8.73759 8.03532 9.1659 7.7487 9.63796 7.55493C10.11 7.36116 10.6162 7.26419 11.1265 7.26978C17.5006 7.31379 23.8748 7.28192 30.2489 7.28951C32.4571 7.28951 33.999 8.85393 34.0051 11.083C34.0021 14.2604 33.996 17.4469 33.996 20.6334ZM20.5648 31.5585C23.7245 31.5585 26.8848 31.5585 30.0455 31.5585C31.1322 31.5585 31.5708 31.1276 31.5708 30.0563C31.5708 23.7845 31.5708 17.5162 31.5708 11.2514C31.5708 10.1103 31.161 9.7067 30.0167 9.70519C23.7473 9.70519 17.4779 9.72036 11.2084 9.69001C10.3904 9.69001 9.69988 10.212 9.70443 11.1679C9.73175 17.462 9.71657 23.7546 9.71809 30.0487C9.71809 31.1291 10.1476 31.5525 11.2357 31.554C14.3449 31.557 17.4546 31.5585 20.5648 31.5585Z" fill="#646464"/>
<path d="M0.00209395 13.2744C0.00209395 10.0879 -0.00701197 6.90136 0.00209395 3.71485C0.00968222 1.87427 1.15703 0.464619 2.93268 0.0731338C3.18234 0.0222834 3.43674 -0.0016261 3.69151 0.00181665C10.1395 0.00181665 16.588 0.00181665 23.037 0.00181665C24.8506 0.00181665 26.2818 1.19296 26.6506 2.96678C26.7036 3.21597 26.7215 3.47134 26.7037 3.72548C26.6863 4.01867 26.5619 4.2953 26.3541 4.50284C26.1462 4.71039 25.8694 4.83441 25.5761 4.85137C25.2952 4.86512 25.018 4.78229 24.7908 4.61664C24.5635 4.451 24.3999 4.21253 24.327 3.94094C24.3081 3.84068 24.2954 3.73932 24.2891 3.63747C24.1631 2.79683 23.7777 2.43418 22.9338 2.42356C21.3145 2.40838 19.6967 2.41597 18.0773 2.41597H4.11493C3.98745 2.41597 3.86149 2.41597 3.73552 2.41597C2.89929 2.45087 2.444 2.90457 2.43186 3.75886C2.41668 4.8453 2.43186 5.93327 2.43186 7.01971C2.43186 12.1788 2.43186 17.3379 2.43186 22.497C2.424 22.7247 2.42907 22.9527 2.44703 23.1798C2.47492 23.4326 2.58054 23.6705 2.74934 23.8608C2.91814 24.051 3.1418 24.1842 3.3895 24.242C3.46355 24.2597 3.53948 24.2684 3.61563 24.2678C3.78641 24.2673 3.95545 24.3022 4.11214 24.3701C4.26884 24.438 4.40981 24.5375 4.52622 24.6625C4.64263 24.7874 4.73197 24.9351 4.78864 25.0961C4.84531 25.2572 4.86809 25.4283 4.85555 25.5986C4.77208 26.3208 4.16805 26.7548 3.30754 26.685C2.41859 26.5966 1.59277 26.1858 0.986017 25.5303C0.379267 24.8747 0.0335824 24.0197 0.0142355 23.1267C-0.010047 20.7247 0.0142355 18.3227 0.0142355 15.9207V13.2744H0.00209395Z" fill="#D7D8DC"/>
<path d="M22.7549 12.4304C25.2286 12.4304 27.452 13.8416 28.3611 16.1025C29.3385 18.5303 28.9105 20.7472 27.1591 22.6985C26.9604 22.9274 26.7398 23.1362 26.5004 23.3222C26.2732 23.4849 25.9967 23.5643 25.7178 23.5469C25.4388 23.5295 25.1744 23.4163 24.9691 23.2266C24.7496 23.031 24.6127 22.7593 24.5862 22.4665C24.5597 22.1737 24.6456 21.8818 24.8265 21.65C25.0019 21.4348 25.1894 21.2296 25.388 21.0355C26.7812 19.5287 26.7782 17.327 25.3804 15.9189C23.9826 14.5107 21.7623 14.4925 20.2629 15.8764C20.0762 16.0463 19.9077 16.2375 19.7089 16.3908C19.1656 16.8126 18.5145 16.7732 18.0668 16.3088C17.8576 16.0858 17.7403 15.792 17.7383 15.4862C17.7363 15.1804 17.8499 14.8852 18.0562 14.6594C19.2992 13.2498 20.8381 12.4395 22.7549 12.4304Z" fill="#646464"/>
<path d="M17.9486 28.8379C15.9924 28.7407 14.0756 27.6315 13.0132 25.3388C11.9266 22.9914 12.2984 20.7623 13.9511 18.7655C14.1766 18.4928 14.4276 18.2423 14.7008 18.0174C14.9246 17.828 15.2094 17.7259 15.5026 17.7301C15.7958 17.7343 16.0776 17.8444 16.2959 18.0402C16.7709 18.4772 16.8271 19.1342 16.4112 19.6789C16.2443 19.8974 16.0333 20.0841 15.8451 20.2859C15.2224 20.9784 14.8887 21.8832 14.9126 22.8141C14.9365 23.7451 15.3162 24.6315 15.9736 25.2912C16.6311 25.9509 17.5163 26.3337 18.4474 26.3609C19.3784 26.388 20.2845 26.0576 20.9794 25.4374C21.166 25.2675 21.333 25.0732 21.5272 24.9139C22.0979 24.4481 22.7641 24.4754 23.227 24.97C23.652 25.4253 23.6504 26.099 23.227 26.624C22.1009 28.0003 20.3389 28.8272 17.9486 28.8379Z" fill="#646464"/>
<path d="M24.0207 18.6289C23.9053 18.8322 23.79 19.1797 23.5654 19.4179C22.503 20.5256 21.4042 21.6121 20.3039 22.6879C19.7257 23.2539 18.9729 23.263 18.4827 22.7577C17.9925 22.2524 18.035 21.5438 18.5723 20.9945C19.665 19.8747 20.7759 18.7715 21.8899 17.673C22.0601 17.4829 22.2882 17.3541 22.5389 17.3067C22.7897 17.2592 23.0491 17.2957 23.277 17.4105C23.7444 17.6199 23.9372 18.0038 24.0207 18.6289Z" fill="#646464"/>
</g>
<defs>
<clipPath id="clip0_926_11353">
<rect width="34" height="34" fill="white"/>
</clipPath>
</defs>
</svg>
