<svg width="26" height="25" viewBox="0 0 26 25" fill="none" xmlns="http://www.w3.org/2000/svg">
<path d="M0.976562 12.7256C0.976562 6.05718 6.38237 0.651367 13.0508 0.651367C19.7192 0.651367 25.125 6.05718 25.125 12.7256C25.125 19.394 19.7192 24.7998 13.0508 24.7998C6.38237 24.7998 0.976562 19.394 0.976562 12.7256Z" fill="#2B78E4"/>
<path fill-rule="evenodd" clip-rule="evenodd" d="M9.42145 14.7091C10.5147 14.0436 11.7704 13.6917 13.0507 13.6917C14.331 13.6917 15.5867 14.0436 16.68 14.7091C17.7733 15.3746 18.6621 16.3279 19.2486 17.4647C19.4321 17.8202 19.2926 18.2572 18.9371 18.4407C18.5815 18.6242 18.1445 18.4847 17.9611 18.1291C17.4966 17.2291 16.7928 16.474 15.9266 15.9468C15.0604 15.4195 14.0654 15.1406 13.0507 15.1406C12.036 15.1406 11.041 15.4195 10.1748 15.9468C9.30862 16.474 8.60479 17.2291 8.14037 18.1291C7.95689 18.4847 7.51991 18.6242 7.16436 18.4407C6.8088 18.2572 6.66931 17.8202 6.85279 17.4647C7.43938 16.3279 8.32814 15.3746 9.42145 14.7091Z" fill="white"/>
<path d="M9.66982 10.0694C10.3367 10.0694 10.8772 9.5288 10.8772 8.86196C10.8772 8.19512 10.3367 7.65454 9.66982 7.65454C9.00298 7.65454 8.4624 8.19512 8.4624 8.86196C8.4624 9.5288 9.00298 10.0694 9.66982 10.0694Z" fill="white"/>
<path d="M16.4315 10.0694C17.0984 10.0694 17.639 9.5288 17.639 8.86196C17.639 8.19512 17.0984 7.65454 16.4315 7.65454C15.7647 7.65454 15.2241 8.19512 15.2241 8.86196C15.2241 9.5288 15.7647 10.0694 16.4315 10.0694Z" fill="white"/>
</svg>
