<svg width="23" height="21" viewBox="0 0 23 21" fill="none" xmlns="http://www.w3.org/2000/svg">
<path d="M0.766667 3.74955H0.875533C1.04287 4.39278 1.42451 4.96313 1.96015 5.37049C2.49579 5.77785 3.15489 5.999 3.83333 5.999C4.51178 5.999 5.17088 5.77785 5.70652 5.37049C6.24216 4.96313 6.62379 4.39278 6.79113 3.74955H22.2333C22.4367 3.74955 22.6317 3.67053 22.7754 3.52986C22.9192 3.3892 23 3.19842 23 2.9995C23 2.80057 22.9192 2.6098 22.7754 2.46913C22.6317 2.32847 22.4367 2.24945 22.2333 2.24945H6.79113C6.62379 1.60622 6.24216 1.03587 5.70652 0.628509C5.17088 0.221149 4.51178 0 3.83333 0C3.15489 0 2.49579 0.221149 1.96015 0.628509C1.42451 1.03587 1.04287 1.60622 0.875533 2.24945H0.766667C0.563334 2.24945 0.368329 2.32847 0.224551 2.46913C0.0807735 2.6098 0 2.80057 0 2.9995C0 3.19842 0.0807735 3.3892 0.224551 3.52986C0.368329 3.67053 0.563334 3.74955 0.766667 3.74955ZM3.83333 1.4994C4.1366 1.4994 4.43305 1.58738 4.68521 1.75221C4.93736 1.91704 5.13389 2.15133 5.24995 2.42544C5.366 2.69954 5.39637 3.00116 5.3372 3.29215C5.27804 3.58314 5.132 3.85044 4.91756 4.06023C4.70312 4.27002 4.42991 4.41289 4.13247 4.47077C3.83503 4.52866 3.52673 4.49895 3.24655 4.38541C2.96637 4.27187 2.7269 4.0796 2.55841 3.83291C2.38993 3.58622 2.3 3.29619 2.3 2.9995C2.3 2.60165 2.46155 2.22009 2.7491 1.93877C3.03666 1.65744 3.42667 1.4994 3.83333 1.4994ZM22.2333 9.74995H22.1245C21.9571 9.10672 21.5755 8.53637 21.0399 8.12901C20.5042 7.72165 19.8451 7.5005 19.1667 7.5005C18.4882 7.5005 17.8291 7.72165 17.2935 8.12901C16.7578 8.53637 16.3762 9.10672 16.2089 9.74995H0.766667C0.563334 9.74995 0.368329 9.82897 0.224551 9.96963C0.0807735 10.1103 0 10.3011 0 10.5C0 10.6989 0.0807735 10.8897 0.224551 11.0304C0.368329 11.171 0.563334 11.25 0.766667 11.25H16.2089C16.3762 11.8933 16.7578 12.4636 17.2935 12.871C17.8291 13.2783 18.4882 13.4995 19.1667 13.4995C19.8451 13.4995 20.5042 13.2783 21.0399 12.871C21.5755 12.4636 21.9571 11.8933 22.1245 11.25H22.2333C22.4367 11.25 22.6317 11.171 22.7754 11.0304C22.9192 10.8897 23 10.6989 23 10.5C23 10.3011 22.9192 10.1103 22.7754 9.96963C22.6317 9.82897 22.4367 9.74995 22.2333 9.74995ZM19.1667 12.0001C18.8634 12.0001 18.5669 11.9121 18.3148 11.7473C18.0626 11.5825 17.8661 11.3482 17.7501 11.0741C17.634 10.8 17.6036 10.4983 17.6628 10.2073C17.722 9.91635 17.868 9.64906 18.0824 9.43927C18.2969 9.22948 18.5701 9.08661 18.8675 9.02872C19.165 8.97084 19.4733 9.00055 19.7534 9.11409C20.0336 9.22763 20.2731 9.4199 20.4416 9.66659C20.6101 9.91328 20.7 10.2033 20.7 10.5C20.7 10.8979 20.5385 11.2794 20.2509 11.5607C19.9633 11.8421 19.5733 12.0001 19.1667 12.0001ZM22.2333 17.2505H14.4578C14.2905 16.6072 13.9088 16.0369 13.3732 15.6295C12.8375 15.2222 12.1784 15.001 11.5 15.001C10.8216 15.001 10.1625 15.2222 9.62682 15.6295C9.09118 16.0369 8.70954 16.6072 8.5422 17.2505H0.766667C0.563334 17.2505 0.368329 17.3295 0.224551 17.4701C0.0807735 17.6108 0 17.8016 0 18.0005C0 18.1994 0.0807735 18.3902 0.224551 18.5309C0.368329 18.6715 0.563334 18.7506 0.766667 18.7506H8.5422C8.70954 19.3938 9.09118 19.9641 9.62682 20.3715C10.1625 20.7789 10.8216 21 11.5 21C12.1784 21 12.8375 20.7789 13.3732 20.3715C13.9088 19.9641 14.2905 19.3938 14.4578 18.7506H22.2333C22.4367 18.7506 22.6317 18.6715 22.7754 18.5309C22.9192 18.3902 23 18.1994 23 18.0005C23 17.8016 22.9192 17.6108 22.7754 17.4701C22.6317 17.3295 22.4367 17.2505 22.2333 17.2505ZM11.5 19.5006C11.1967 19.5006 10.9003 19.4126 10.6481 19.2478C10.396 19.083 10.1994 18.8487 10.0834 18.5746C9.96733 18.3005 9.93696 17.9988 9.99613 17.7078C10.0553 17.4169 10.2013 17.1496 10.4158 16.9398C10.6302 16.73 10.9034 16.5871 11.2009 16.5292C11.4983 16.4713 11.8066 16.501 12.0868 16.6146C12.367 16.7281 12.6064 16.9204 12.7749 17.1671C12.9434 17.4138 13.0333 17.7038 13.0333 18.0005C13.0333 18.3984 12.8718 18.7799 12.5842 19.0612C12.2967 19.3426 11.9067 19.5006 11.5 19.5006Z" fill="#C71920"/>
</svg>
