<svg width="18" height="11" viewBox="0 0 18 11" fill="none" xmlns="http://www.w3.org/2000/svg">
<path fill-rule="evenodd" clip-rule="evenodd" d="M0.845002 10.821C1.08365 11.0597 1.47058 11.0597 1.70923 10.821L6.77701 5.75323L9.40039 8.37662C9.63904 8.61526 10.026 8.61526 10.2646 8.37662L17.5978 1.04343C17.8365 0.804777 17.8365 0.417851 17.5978 0.179201C17.3592 -0.0594478 16.9722 -0.0594478 16.7336 0.179201L9.8325 7.08028L7.20912 4.4569C6.97047 4.21825 6.58354 4.21825 6.34489 4.4569L0.845002 9.95679C0.606353 10.1954 0.606353 10.5824 0.845002 10.821Z" fill="#4CC403"/>
<path fill-rule="evenodd" clip-rule="evenodd" d="M17.1659 6.11099C17.5034 6.11099 17.777 5.83739 17.777 5.49989L17.777 0.6111C17.777 0.273599 17.5034 4.43353e-07 17.1659 4.72858e-07L12.2771 9.0025e-07C11.9396 9.29756e-07 11.666 0.273599 11.666 0.6111C11.666 0.948601 11.9396 1.2222 12.2771 1.2222L16.5548 1.2222L16.5548 5.49989C16.5548 5.83739 16.8284 6.11099 17.1659 6.11099Z" fill="#4CC403"/>
</svg>
