<svg xmlns="http://www.w3.org/2000/svg" width="242.885" height="100" viewBox="0 0 242.885 100">
  <g id="logo_red" transform="translate(0)">
    <path id="Path_3774" data-name="Path 3774" d="M294.747,7443.686H214.189a18.021,18.021,0,0,0,2.295,8.039,14.808,14.808,0,0,0,12.853,7.131h55.987c.144-2.3,2.415-4.009,5.067-3.854l.936.057c3.707,0,7.637-.049,10.124.143,31,2.387,35.641,35.571,35.641,35.571h7.861c0-16.795-15.416-32.991-15.416-32.991C314.9,7443.145,294.747,7443.686,294.747,7443.686Z" transform="translate(-163.298 -7443.684)" fill="#C71920"/>
    <path id="Path_3775" data-name="Path 3775" d="M285.085,7493.46a7.313,7.313,0,0,0-7.144,6.568,5.922,5.922,0,0,0,5.993,6.569,7.315,7.315,0,0,0,7.145-6.569A5.922,5.922,0,0,0,285.085,7493.46Z" transform="translate(-173.222 -7449.735)" fill="#C71920"/>
    <path id="Path_3776" data-name="Path 3776" d="M330.74,7500.029a5.922,5.922,0,0,0,5.993,6.569,7.315,7.315,0,0,0,7.145-6.569,5.922,5.922,0,0,0-5.994-6.568A7.313,7.313,0,0,0,330.74,7500.029Z" transform="translate(-181.007 -7449.735)" fill="#C71920"/>
    <path id="Path_3777" data-name="Path 3777" d="M313.025,7492.916a10.072,10.072,0,0,1,9.463-7.19,8.1,8.1,0,0,1,8.2,7.19h5.842c-5.158-24.55-20.873-30.508-26.392-32.2a26.159,26.159,0,0,0-7.64-1.164H294.13v1.151h11.7v1.712h-11.7v1.151h11.7v1.712h-11.7v1.151H305.8a1.819,1.819,0,0,1-1.666,1.421l-11.2.658c-2.739.16-5.08-1.663-5.08-4.082v-.521l-.169.137H230.522c.048.308.1.609.162.9a15.54,15.54,0,0,0,15.32,12.2h55.636c.814-2.582,4-4.511,7.824-4.511,4.435,0,8.032,2.6,8.032,5.8s-3.6,5.8-8.032,5.8c-3.926,0-7.189-2.037-7.887-4.729H247.96c.433,6.806,3.882,10.164,6.992,11.815a14.255,14.255,0,0,0,6.7,1.581h6.8a10.072,10.072,0,0,1,9.463-7.19,8.1,8.1,0,0,1,8.2,7.19Z" transform="translate(-165.8 -7446.156)" fill="#C71920"/>
    <path id="Path_3778" data-name="Path 3778" d="M155.118,7551.353h9.623v-12.612h13.726v-8.053H164.742v-4h15.7v-8.154H155.118Z" transform="translate(-155.118 -7451.96)" fill="#C71920"/>
    <path id="Path_3779" data-name="Path 3779" d="M277.685,7527.555a7.216,7.216,0,0,0-6.078-2.685,10.287,10.287,0,0,0-8.459,3.825,14.856,14.856,0,0,0-3.09,9.647,15.09,15.09,0,0,0,2.988,9.624,9.925,9.925,0,0,0,8.256,3.8,11.018,11.018,0,0,0,4-.785,5.07,5.07,0,0,0,2.886-2.607v2.887H286.9v-33.327h-9.218Zm-1.115,14.613a3.736,3.736,0,0,1-5.976,0,6.04,6.04,0,0,1-1.165-3.825,6.147,6.147,0,0,1,1.165-3.85,3.7,3.7,0,0,1,5.976,0,6.142,6.142,0,0,1,1.166,3.85A6.035,6.035,0,0,1,276.57,7542.168Z" transform="translate(-170.533 -7451.867)" fill="#C71920"/>
    <path id="Path_3780" data-name="Path 3780" d="M314.136,7543.156a7.288,7.288,0,0,1-5.572-2.33,8.4,8.4,0,0,1-2.178-5.977,8.111,8.111,0,0,1,2.254-5.875,7.356,7.356,0,0,1,5.5-2.331,7.88,7.88,0,0,1,5.774,2.584l6.331-6.535q-4.76-4.759-12.51-4.76a16.919,16.919,0,0,0-12.536,4.861,17.538,17.538,0,0,0,0,24.187,16.869,16.869,0,0,0,12.536,4.887q8.459,0,13.523-5.621l-6.129-6.737A8.384,8.384,0,0,1,314.136,7543.156Z" transform="translate(-175.842 -7451.867)" fill="#C71920"/>
    <path id="Path_3781" data-name="Path 3781" d="M360.93,7530.391a8.032,8.032,0,0,0-1.469-2.836,7.391,7.391,0,0,0-2.685-1.9,10,10,0,0,0-4.128-.785,9.457,9.457,0,0,0-7.293,2.838v-9.776h-9.219v33.327h9.219v-12.206a6.619,6.619,0,0,1,1.14-4.027,3.665,3.665,0,0,1,3.115-1.545q2.887,0,2.887,4.508v13.271h9.218v-14.435q0-1.875-.127-3.293A15.4,15.4,0,0,0,360.93,7530.391Z" transform="translate(-181.719 -7451.867)" fill="#C71920"/>
    <path id="Path_3782" data-name="Path 3782" d="M387.687,7545.989a4.546,4.546,0,0,1-6.737,0,5.247,5.247,0,0,1-1.193-2.636c-4.073-.315-7.328-.656-9.405-.9a12.72,12.72,0,0,0,4.014,9.23,14.651,14.651,0,0,0,19.905,0,12.663,12.663,0,0,0,3.877-7.543c-3.29-.024-6.447-.115-9.4-.245A5.112,5.112,0,0,1,387.687,7545.989Z" transform="translate(-186.397 -7455.688)" fill="#C71920"/>
    <path id="Path_3783" data-name="Path 3783" d="M380.976,7535.774a4.437,4.437,0,0,1,6.686,0,5.2,5.2,0,0,1,1.071,2.065c2.956-.131,6.117-.223,9.411-.247a12.684,12.684,0,0,0-3.872-7.541,14.648,14.648,0,0,0-19.905,0,12.766,12.766,0,0,0-4.012,9.229c2.078-.241,5.339-.583,9.417-.9A5.3,5.3,0,0,1,380.976,7535.774Z" transform="translate(-186.397 -7453.147)" fill="#C71920"/>
    <path id="Path_3784" data-name="Path 3784" d="M417.721,7535.774a4.436,4.436,0,0,1,6.685,0,5.3,5.3,0,0,1,1.2,2.593c4.044.308,7.3.646,9.419.89a12.764,12.764,0,0,0-4.01-9.205,14.648,14.648,0,0,0-19.905,0,12.684,12.684,0,0,0-3.873,7.539c3.292.022,6.455.11,9.414.239A5.2,5.2,0,0,1,417.721,7535.774Z" transform="translate(-192.144 -7453.147)" fill="#C71920"/>
    <path id="Path_3785" data-name="Path 3785" d="M425.62,7543.374a5.252,5.252,0,0,1-1.189,2.62,4.546,4.546,0,0,1-6.737,0,5.134,5.134,0,0,1-1.059-2.081c-2.956.129-6.115.216-9.4.237a12.664,12.664,0,0,0,3.878,7.542,14.654,14.654,0,0,0,19.905,0,12.726,12.726,0,0,0,4.012-9.208C432.907,7542.729,429.66,7543.066,425.62,7543.374Z" transform="translate(-192.143 -7455.691)" fill="#C71920"/>
    <path id="Path_3786" data-name="Path 3786" d="M204.083,7545.989a4.546,4.546,0,0,1-6.737,0,5.247,5.247,0,0,1-1.193-2.636c-4.073-.315-7.328-.656-9.405-.9a12.72,12.72,0,0,0,4.014,9.23,14.651,14.651,0,0,0,19.905,0,12.663,12.663,0,0,0,3.877-7.543c-3.29-.024-6.447-.115-9.4-.245A5.112,5.112,0,0,1,204.083,7545.989Z" transform="translate(-160.046 -7455.688)" fill="#C71920"/>
    <path id="Path_3787" data-name="Path 3787" d="M197.372,7535.774a4.437,4.437,0,0,1,6.686,0,5.2,5.2,0,0,1,1.071,2.065c2.956-.131,6.117-.223,9.411-.247a12.684,12.684,0,0,0-3.872-7.541,14.648,14.648,0,0,0-19.905,0,12.766,12.766,0,0,0-4.012,9.229c2.078-.241,5.339-.583,9.417-.9A5.3,5.3,0,0,1,197.372,7535.774Z" transform="translate(-160.047 -7453.147)" fill="#C71920"/>
    <path id="Path_3788" data-name="Path 3788" d="M234.117,7535.774a4.436,4.436,0,0,1,6.685,0,5.3,5.3,0,0,1,1.2,2.593c4.045.308,7.3.646,9.419.89a12.764,12.764,0,0,0-4.01-9.205,14.648,14.648,0,0,0-19.905,0,12.685,12.685,0,0,0-3.873,7.539c3.292.022,6.455.11,9.414.239A5.2,5.2,0,0,1,234.117,7535.774Z" transform="translate(-165.18 -7453.147)" fill="#C71920"/>
    <path id="Path_3789" data-name="Path 3789" d="M240.828,7545.994a4.546,4.546,0,0,1-6.737,0,5.134,5.134,0,0,1-1.059-2.081c-2.956.129-6.114.216-9.4.237a12.664,12.664,0,0,0,3.878,7.542,14.654,14.654,0,0,0,19.905,0,12.726,12.726,0,0,0,4.012-9.208c-2.121.245-5.368.582-9.408.89A5.252,5.252,0,0,1,240.828,7545.994Z" transform="translate(-165.179 -7455.691)" fill="#C71920"/>
  </g>
</svg>
