<svg width="59" height="58" viewBox="0 0 59 58" fill="none" xmlns="http://www.w3.org/2000/svg">
<path d="M29.6535 0.152727C35.3573 0.152727 40.9329 1.84408 45.6754 5.01291C50.4179 8.18175 54.1142 12.6857 56.297 17.9553C58.4797 23.2249 59.0508 29.0234 57.938 34.6175C56.8253 40.2117 54.0787 45.3502 50.0455 49.3834C46.0124 53.4166 40.8738 56.1632 35.2797 57.2759C29.6855 58.3887 23.887 57.8176 18.6174 55.6348C13.3479 53.4521 8.84388 49.7558 5.67505 45.0133C2.50621 40.2708 0.814852 34.6951 0.814852 28.9914C0.814853 21.3429 3.85321 14.0077 9.26151 8.59938C14.6698 3.19108 22.005 0.152726 29.6535 0.152727ZM29.6535 4.65174C24.8396 4.65174 20.1338 6.07923 16.1311 8.7537C12.1285 11.4282 9.00882 15.2295 7.16661 19.677C5.3244 24.1245 4.8424 29.0184 5.78155 33.7398C6.7207 38.4613 9.03882 42.7982 12.4428 46.2021C15.8467 49.6061 20.1837 51.9242 24.9051 52.8634C29.6265 53.8025 34.5204 53.3205 38.9679 51.4783C43.4154 49.6361 47.2167 46.5164 49.8912 42.5138C52.5657 38.5111 53.9932 33.8053 53.9932 28.9914C53.9932 22.5361 51.4288 16.3452 46.8643 11.7807C42.2997 7.21608 36.1088 4.65174 29.6535 4.65174Z" fill="#FFC109"/>
</svg>
