<svg width="31" height="32" viewBox="0 0 31 32" fill="none" xmlns="http://www.w3.org/2000/svg">
<path d="M30.9986 11.9058C31.0114 11.4965 30.9368 11.0891 30.7795 10.7092C30.6222 10.3293 30.3857 9.98523 30.0849 9.69865C27.1282 6.77676 24.1809 3.84576 21.243 0.905648C20.9576 0.605944 20.6087 0.36998 20.2204 0.214026C19.8321 0.0580709 19.4137 -0.0141657 18.9939 0.00229514C15.3629 0.0241615 11.732 0.0022948 8.10248 0.0104947C6.12325 0.0104947 5.11536 0.990382 5.11255 2.90779C5.11255 6.32258 5.11255 9.73919 5.11255 13.1576V13.9107H1.09223C0.948797 13.9107 0.806767 13.9381 0.674252 13.9915C0.541736 14.0448 0.421329 14.1231 0.319906 14.2217C0.218483 14.3203 0.13803 14.4373 0.0831398 14.5662C0.02825 14.695 0 14.8331 0 14.9725V22.459C0 22.5985 0.02825 22.7366 0.0831398 22.8654C0.13803 22.9942 0.218483 23.1113 0.319906 23.2099C0.421329 23.3085 0.541736 23.3867 0.674252 23.4401C0.806767 23.4934 0.948797 23.5209 1.09223 23.5209H19.0754C19.3651 23.5209 19.6429 23.409 19.8477 23.2099C20.0526 23.0107 20.1676 22.7407 20.1676 22.459V14.9766C20.1676 14.8372 20.1394 14.6991 20.0845 14.5703C20.0296 14.4414 19.9492 14.3244 19.8477 14.2258C19.7463 14.1272 19.6259 14.0489 19.4934 13.9956C19.3609 13.9422 19.2188 13.9148 19.0754 13.9148H8.00408V2.82989C8.12983 2.80491 8.25706 2.78756 8.38503 2.77795C11.8993 2.77795 15.4135 2.76975 18.9278 2.77795C19.7009 2.77795 19.9498 3.05128 19.954 3.83847C19.9638 5.29532 19.954 6.75353 19.961 8.21174C19.9765 9.89271 21.0575 10.945 22.764 10.9614C24.1219 10.9696 25.4798 10.9614 26.8405 10.9614C27.9187 10.9614 28.1281 11.1528 28.1296 12.1832C28.1352 17.4676 28.1352 22.7519 28.1296 28.0363C28.1296 28.2345 28.0986 28.434 28.0804 28.6609H7.95488C7.95488 27.9106 7.93661 27.2505 7.95488 26.5931C7.97316 26.0793 7.78198 25.8251 7.22392 25.8538C6.73271 25.8784 6.24053 25.8784 5.74933 25.8538C5.2236 25.8292 5.03523 26.0697 5.04648 26.5508C5.06054 27.256 5.04648 27.9625 5.04648 28.6677C5.06756 30.4334 6.12746 31.4625 7.94504 31.4639C14.6428 31.4693 21.3433 31.4693 28.0466 31.4639C29.9443 31.4639 30.9873 30.432 30.9888 28.5734C30.9972 23.0166 30.9873 17.4639 30.9986 11.9058ZM13.4146 16.8804H16.6871V17.6676H14.3593V18.5327H16.3427V19.3144H14.3593V21.1306H13.4146V16.8804ZM8.60994 16.8804H10.3643C11.8023 16.8804 12.7062 17.837 12.7062 19.0055C12.7062 20.174 11.8023 21.1306 10.3643 21.1306H8.60994V16.8804ZM5.96581 20.1603H5.04086V21.1306H4.09622V16.8804H5.97284C7.25484 16.8804 7.92958 17.6143 7.92958 18.5204C7.92958 19.4264 7.25203 20.1603 5.96581 20.1603Z" fill="#C71920"/>
</svg>
