<svg width="18" height="11" viewBox="0 0 18 11" fill="none" xmlns="http://www.w3.org/2000/svg">
<path fill-rule="evenodd" clip-rule="evenodd" d="M0.178988 0.178988C0.417639 -0.0596627 0.804568 -0.0596627 1.04322 0.178988L6.11103 5.2468L8.73443 2.6234C8.97308 2.38475 9.36001 2.38475 9.59866 2.6234L16.9319 9.95664C17.1706 10.1953 17.1706 10.5822 16.9319 10.8209C16.6933 11.0595 16.3063 11.0595 16.0677 10.8209L9.16655 3.91975L6.54315 6.54315C6.3045 6.7818 5.91757 6.7818 5.67892 6.54315L0.178988 1.04322C-0.0596627 0.804568 -0.0596627 0.417639 0.178988 0.178988Z" fill="#C71920"/>
<path fill-rule="evenodd" clip-rule="evenodd" d="M16.4999 4.88904C16.8374 4.88904 17.111 5.16264 17.111 5.50014V10.389C17.111 10.7265 16.8374 11.0001 16.4999 11.0001H11.6111C11.2736 11.0001 11 10.7265 11 10.389C11 10.0515 11.2736 9.77786 11.6111 9.77786H15.8888V5.50014C15.8888 5.16264 16.1624 4.88904 16.4999 4.88904Z" fill="#C71920"/>
</svg>
