<svg width="115" height="32" viewBox="0 0 115 32" fill="none" xmlns="http://www.w3.org/2000/svg"><g clip-path="url(#clip0_15578_9978)"><path d="M5.69359 14.9584C8.09208 14.9815 10.0551 13.0558 10.0781 10.6573C10.1011 8.25881 8.17546 6.29579 5.77697 6.27276C3.37849 6.24974 1.41547 8.17543 1.39244 10.5739C1.36942 12.9724 3.29511 14.9354 5.69359 14.9584Z" fill="#FF5F17"></path><path d="M7.72907 2.36867C9.07065 1.56978 10.523 0.973646 12.0389 0.599609C13.4746 2.56191 14.3391 4.88332 14.5366 7.30671C14.7341 9.73009 14.2569 12.1608 13.1579 14.3297C13.107 14.427 13.0562 14.5265 13.0031 14.6238C11.8351 16.7654 10.0952 18.5404 7.97728 19.7509C5.85941 20.9613 3.4469 21.5596 1.00886 21.4789C0.46204 20.0168 0.134894 18.4816 0.0380859 16.9236C1.82228 17.2314 3.6581 16.9699 5.28537 16.1761C6.91264 15.3823 8.24881 14.0965 9.10451 12.5009L9.20844 12.3064C10.0284 10.7024 10.3266 8.88222 10.0613 7.10043C9.7961 5.31864 8.98067 3.66429 7.72907 2.36867Z" fill="#FF5F17"></path><path d="M25.8148 14.6286C28.2113 14.5277 30.0722 12.5033 29.9714 10.1068C29.8705 7.71031 27.846 5.84934 25.4496 5.9502C23.0531 6.05106 21.1921 8.07556 21.293 10.472C21.3939 12.8685 23.4183 14.7295 25.8148 14.6286Z" fill="#BFC9FF"></path><path d="M23.3808 2.11432C22.014 1.36037 20.5429 0.813374 19.0156 0.491211C17.6464 2.50011 16.8597 4.8487 16.7426 7.27703C16.6255 9.70537 17.1826 12.1188 18.3522 14.2501C18.4053 14.3474 18.4606 14.4447 18.5159 14.5397C19.753 16.642 21.5498 18.3592 23.706 19.4998C25.8622 20.6404 28.2928 21.1594 30.7268 20.999C31.2252 19.5198 31.5024 17.9752 31.5494 16.415C29.7782 16.7785 27.9374 16.5762 26.2875 15.8365C24.6375 15.0968 23.2618 13.8573 22.3547 12.293C22.3171 12.2311 22.2817 12.167 22.2464 12.1029C21.3694 10.5278 21.0073 8.71779 21.2107 6.92656C21.4142 5.13533 22.173 3.45264 23.3808 2.11432V2.11432Z" fill="#BFC9FF"></path><path d="M11.7242 25.5594C10.6097 27.6833 11.4279 30.3087 13.5517 31.4232C15.6756 32.5378 18.301 31.7196 19.4156 29.5958C20.5302 27.4719 19.712 24.8465 17.5881 23.7319C15.4642 22.6173 12.8388 23.4355 11.7242 25.5594Z" fill="#4620ED"></path><path d="M24.011 29.7204C25.3485 28.9154 26.5594 27.9169 27.6044 26.7573C26.5545 24.5643 24.9182 22.7046 22.8765 21.3842C20.8349 20.0639 18.4677 19.3343 16.037 19.2764H15.7031C13.2643 19.293 10.8781 19.9868 8.81062 21.2804C6.74313 22.574 5.07564 24.4166 3.99414 26.6025C5.02316 27.7758 6.21988 28.7907 7.54553 29.6143C8.11934 27.8986 9.21815 26.4068 10.6865 25.35C12.1548 24.2932 13.9183 23.7249 15.7274 23.7256H15.9485C17.7496 23.7598 19.4949 24.3561 20.9405 25.431C22.3861 26.5058 23.4596 28.0055 24.011 29.7204Z" fill="#4620ED"></path></g><g clip-path="url(#clip1_15578_9978)"><path d="M5.67327 14.9731C8.07175 14.9961 10.0348 13.0704 10.0578 10.6719C10.0808 8.27346 8.15513 6.31044 5.75665 6.28741C3.35816 6.26439 1.39515 8.19008 1.37212 10.5886C1.3491 12.987 3.27478 14.9501 5.67327 14.9731Z" fill="#FF5F17"></path><path d="M7.70868 2.38332C9.05026 1.58443 10.5026 0.988294 12.0186 0.614258C13.4542 2.57655 14.3187 4.89797 14.5162 7.32136C14.7137 9.74474 14.2365 12.1755 13.1375 14.3444C13.0866 14.4417 13.0358 14.5412 12.9827 14.6385C11.8147 16.7801 10.0748 18.5551 7.9569 19.7655C5.83902 20.9759 3.42652 21.5742 0.988475 21.4936C0.441654 20.0314 0.114508 18.4963 0.0177002 16.9382C1.80189 17.2461 3.63772 16.9845 5.26499 16.1908C6.89225 15.397 8.22842 14.1112 9.08413 12.5156L9.18806 12.321C10.008 10.717 10.3062 8.89686 10.041 7.11508C9.77571 5.33329 8.96028 3.67893 7.70868 2.38332Z" fill="#FF5F17"></path><path d="M25.7945 14.6433C28.191 14.5424 30.0519 12.5179 29.9511 10.1214C29.8502 7.72495 27.8257 5.86399 25.4292 5.96485C23.0328 6.06571 21.1718 8.0902 21.2727 10.4867C21.3735 12.8832 23.398 14.7441 25.7945 14.6433Z" fill="#BFC9FF"></path><path d="M23.3605 2.12897C21.9937 1.37502 20.5226 0.828022 18.9953 0.505859C17.6261 2.51476 16.8393 4.86335 16.7223 7.29168C16.6052 9.72002 17.1623 12.1334 18.3319 14.2647C18.385 14.362 18.4403 14.4593 18.4955 14.5544C19.7326 16.6567 21.5295 18.3739 23.6857 19.5144C25.8418 20.655 28.2725 21.1741 30.7065 21.0137C31.2049 19.5345 31.4821 17.9898 31.5291 16.4296C29.7578 16.7932 27.9171 16.5908 26.2671 15.8512C24.6172 15.1115 23.2414 13.8719 22.3344 12.3077C22.2968 12.2458 22.2614 12.1817 22.226 12.1175C21.3491 10.5424 20.987 8.73244 21.1904 6.94121C21.3939 5.14998 22.1526 3.46729 23.3605 2.12897V2.12897Z" fill="#BFC9FF"></path><path d="M11.7039 25.5741C10.5893 27.698 11.4075 30.3233 13.5314 31.4379C15.6553 32.5525 18.2806 31.7343 19.3952 29.6104C20.5098 27.4865 19.6916 24.8612 17.5677 23.7466C15.4438 22.632 12.8185 23.4502 11.7039 25.5741Z" fill="#4620ED"></path><path d="M23.9905 29.7351C25.328 28.9301 26.5389 27.9315 27.5839 26.7719C26.534 24.5789 24.8977 22.7193 22.856 21.3989C20.8144 20.0785 18.4472 19.349 16.0165 19.291H15.6826C13.2438 19.3077 10.8576 20.0015 8.79011 21.2951C6.72262 22.5887 5.05514 24.4312 3.97363 26.6171C5.00266 27.7905 6.19937 28.8054 7.52502 29.6289C8.09883 27.9133 9.19765 26.4215 10.666 25.3647C12.1343 24.3079 13.8978 23.7396 15.7069 23.7402H15.928C17.7291 23.7745 19.4744 24.3707 20.92 25.4456C22.3656 26.5205 23.4391 28.0202 23.9905 29.7351Z" fill="#4620ED"></path></g><ellipse cx="50.2048" cy="2.87681" rx="1.43736" ry="1.43736" fill="#1B0B5F"></ellipse><path d="M41.0816 14.5553V9.49392H46.0639V7.47729H41.0816V4.15578H47.5269V2.09961H38.6102V14.5553H41.0816Z" fill="#1B0B5F"></path><path d="M49.0344 5.83631V14.5553H51.4069V5.83631H49.0344Z" fill="#1B0B5F"></path><path d="M55.7704 9.88934C55.7704 8.4263 56.5217 7.47729 57.7278 7.47729C58.8942 7.47729 59.428 8.24836 59.428 9.59278V14.5553H61.8006V9.11828C61.8006 7.18073 60.9504 5.59906 58.6174 5.59906C57.3126 5.59906 56.2054 6.27127 55.7704 7.25981V5.83631H53.3979V14.5553H55.7704V9.88934Z" fill="#1B0B5F"></path><path d="M70.1534 10.3638C70.1534 11.9653 69.1847 12.9341 67.8403 12.9341C66.3574 12.9341 65.5864 11.8467 65.5864 10.2057C65.5864 8.54492 66.3574 7.45752 67.8403 7.45752C69.1847 7.45752 70.1534 8.44607 70.1534 10.0277V10.3638ZM70.1337 14.5553H72.5062V2.09961H70.1337V7.51683C69.7383 6.44921 68.6706 5.59906 67.1285 5.59906C64.5385 5.59906 63.1941 7.63546 63.1941 10.2057C63.1941 12.7759 64.5385 14.7925 67.1285 14.7925C68.6706 14.7925 69.7383 13.9424 70.1337 12.8945V14.5553Z" fill="#1B0B5F"></path><path d="M83.2929 10.779C83.2929 12.1828 82.3439 13.1318 81.0983 13.1318C80.347 13.1318 79.8923 12.7759 79.8923 12.1828C79.8923 11.3128 80.6238 11.1349 81.6519 10.9174L83.2929 10.5616V10.779ZM85.6061 8.96011C85.6061 6.66669 84.1233 5.59906 81.8694 5.59906C79.5562 5.59906 78.192 6.84462 77.8955 8.624L80.0505 8.82171C80.2482 7.97157 80.782 7.37844 81.7705 7.37844C82.7789 7.37844 83.2929 7.97156 83.2929 8.94034V9.13805L80.9006 9.61255C78.9235 10.008 77.5791 10.6999 77.5791 12.3607C77.5791 13.8633 78.6863 14.7728 80.5052 14.7728C81.7903 14.7728 82.9766 14.2389 83.4708 13.2306C83.6883 14.1796 84.321 14.753 85.3095 14.753C86.1004 14.753 86.5749 14.496 86.9505 14.1994V12.9341C86.6935 13.0527 86.4562 13.112 86.219 13.112C85.8434 13.112 85.6061 12.8945 85.6061 12.4398V8.96011Z" fill="#1B0B5F"></path><path d="M49.1679 31.1402C48.7527 30.6855 48.6934 30.0528 48.5352 28.2141C48.3968 26.7511 47.6653 25.9207 46.2418 25.6439C47.7642 25.4462 48.9899 24.3588 48.9899 22.4805C48.9899 20.1674 47.428 18.6845 44.2449 18.6845H38.6102V31.1402H41.042V26.5336H43.9681C45.3916 26.5336 46.0243 27.1662 46.1232 28.57C46.222 29.9539 46.3802 30.8041 46.6372 31.1402H49.1679ZM41.042 24.596V20.6814H43.9088C45.708 20.6814 46.5384 21.4129 46.5384 22.6585C46.5384 24.0029 45.708 24.596 43.9088 24.596H41.042Z" fill="#1B0B5F"></path><path d="M57.0616 28.0955C56.7255 29.084 56.0335 29.5783 54.867 29.5783C53.5819 29.5783 52.5736 28.6688 52.4945 27.3837H59.0387V26.5336C59.0387 24.1611 57.5756 22.184 54.7286 22.184C52.1188 22.184 50.1615 24.1611 50.1615 26.9092C50.1615 29.6574 52.0991 31.3774 54.7879 31.3774C57.022 31.3774 58.5246 30.2307 58.9793 28.2932L57.0616 28.0955ZM52.534 25.9009C52.7515 24.8135 53.404 23.9238 54.7088 23.9238C56.0335 23.9238 56.6464 24.8926 56.7255 25.9009H52.534Z" fill="#1B0B5F"></path><path d="M60.1242 26.7906C60.1242 29.5585 62.042 31.3774 64.7308 31.3774C67.3208 31.3774 68.7443 29.6772 68.942 27.5814L66.9452 27.4035C66.7672 28.7281 66.0357 29.5585 64.7308 29.5585C63.4259 29.5585 62.5165 28.5898 62.5165 26.7906C62.5165 24.9717 63.4259 24.0029 64.7308 24.0029C66.0357 24.0029 66.7672 24.8135 66.9452 26.1184L68.942 25.98C68.7443 23.8843 67.3208 22.184 64.7308 22.184C62.042 22.184 60.1242 24.0227 60.1242 26.7906Z" fill="#1B0B5F"></path><path d="M76.438 22.5399C76.1809 22.3224 75.746 22.184 75.2122 22.184C74.0061 22.184 73.0967 23.0934 72.7803 24.082V22.4212H70.4078V31.1402H72.7803V26.8301C72.7803 25.2485 73.6107 24.3786 74.8365 24.3786C75.4099 24.3786 75.8053 24.4972 76.26 24.7542L76.438 22.5399Z" fill="#1B0B5F"></path><path d="M83.3643 27.0872C83.3643 28.57 82.6525 29.519 81.486 29.519C80.3195 29.519 79.8253 28.7281 79.8253 27.4035V22.4212H77.4528V27.878C77.4528 29.8155 78.2436 31.3774 80.5568 31.3774C81.8814 31.3774 82.9095 30.725 83.3643 29.7167V31.1402H85.7368V22.4212H83.3643V27.0872Z" fill="#1B0B5F"></path><path d="M87.746 22.4212V31.1402H90.1185V22.4212H87.746Z" fill="#1B0B5F"></path><path d="M92.406 28.9259C92.406 30.7843 93.533 31.3774 94.8774 31.3774C95.945 31.3774 96.6568 31.1007 97.2895 30.6262V29.0643C96.7754 29.3015 96.2811 29.4794 95.8066 29.4794C95.0949 29.4794 94.7588 29.1433 94.7588 28.392V24.082H97.1313V22.4212H94.7588V20.0092H93.3155L93.0387 21.1954C92.841 22.006 92.6038 22.441 91.7536 22.5794L91.1605 22.6783V24.082H92.406V28.9259Z" fill="#1B0B5F"></path><path d="M104.983 28.0955C104.647 29.084 103.955 29.5783 102.788 29.5783C101.503 29.5783 100.495 28.6688 100.416 27.3837H106.96V26.5336C106.96 24.1611 105.497 22.184 102.65 22.184C100.04 22.184 98.0828 24.1611 98.0828 26.9092C98.0828 29.6574 100.02 31.3774 102.709 31.3774C104.943 31.3774 106.446 30.2307 106.901 28.2932L104.983 28.0955ZM100.455 25.9009C100.673 24.8135 101.325 23.9238 102.63 23.9238C103.955 23.9238 104.568 24.8926 104.647 25.9009H100.455Z" fill="#1B0B5F"></path><path d="M114.512 22.5399C114.255 22.3224 113.82 22.184 113.287 22.184C112.081 22.184 111.171 23.0934 110.855 24.082V22.4212H108.482V31.1402H110.855V26.8301C110.855 25.2485 111.685 24.3786 112.911 24.3786C113.484 24.3786 113.88 24.4972 114.334 24.7542L114.512 22.5399Z" fill="#1B0B5F"></path><path d="M90.3692 19.6045C90.3692 20.3983 89.7257 21.0418 88.9319 21.0418C88.138 21.0418 87.4945 20.3983 87.4945 19.6045C87.4945 18.8106 88.138 18.1671 88.9319 18.1671C89.7257 18.1671 90.3692 18.8106 90.3692 19.6045Z" fill="#1B0B5F"></path><defs><clipPath id="clip0_15578_9978"><rect width="31.5224" height="31.8607" fill="white" transform="translate(0.0203857 0.0625)"></rect></clipPath><clipPath id="clip1_15578_9978"><rect width="31.5224" height="31.8607" fill="white" transform="translate(0 0.0771484)"></rect></clipPath></defs></svg>